<svg xmlns="http://www.w3.org/2000/svg" xmlns:xlink="http://www.w3.org/1999/xlink" style="margin:auto;background:#ffffff;display:block;z-index:1;position:relative" width="1920" height="1080" preserveAspectRatio="xMidYMid" viewBox="0 0 1920 1080">
<g transform="translate(960,540) scale(1,1) translate(-960,-540)">
<defs>
<linearGradient id="lg-0.15616325702630318" x1="0" x2="0" y1="0" y2="1">
  <stop stop-color="#000000" offset="0.46"></stop>
  <stop stop-color="#000000" offset="0.73"></stop>
  <stop stop-color="#000000" offset="1"></stop>
</linearGradient>
<linearGradient id="fg-lg-0.15616325702630318" x1="0" x2="0" y1="0" y2="1">
  <stop stop-color="#000000" stop-opacity="1" offset="0.46"></stop>
  <stop stop-color="#000000" stop-opacity="0.66" offset="0.73"></stop>
  <stop stop-color="#000000" stop-opacity="0" offset="1"></stop>
</linearGradient>
<style type="text/css">
  path { fill: none; stroke: #00c7ff; stroke-width: 2px }
</style>
</defs>
<rect x="0" y="0" width="1920" height="1080" fill="url(#lg-0.15616325702630318)"></rect><path d="M0 496.8 L-13440 1080"></path><path d="M9.6 496.8 L-13296 1080"></path><path d="M19.2 496.8 L-13152 1080"></path><path d="M28.8 496.8 L-13008 1080"></path><path d="M38.4 496.8 L-12864 1080"></path><path d="M48 496.8 L-12720 1080"></path><path d="M57.6 496.8 L-12576 1080"></path><path d="M67.2 496.8 L-12432 1080"></path><path d="M76.8 496.8 L-12288 1080"></path><path d="M86.4 496.8 L-12144 1080"></path><path d="M96 496.8 L-12000 1080"></path><path d="M105.6 496.8 L-11856 1080"></path><path d="M115.2 496.8 L-11712 1080"></path><path d="M124.8 496.8 L-11568 1080"></path><path d="M134.4 496.8 L-11424 1080"></path><path d="M144 496.8 L-11280 1080"></path><path d="M153.6 496.8 L-11136 1080"></path><path d="M163.2 496.8 L-10992 1080"></path><path d="M172.8 496.8 L-10848 1080"></path><path d="M182.4 496.8 L-10704 1080"></path><path d="M192 496.8 L-10560 1080"></path><path d="M201.6 496.8 L-10416 1080"></path><path d="M211.2 496.8 L-10272 1080"></path><path d="M220.8 496.8 L-10128 1080"></path><path d="M230.4 496.8 L-9984 1080"></path><path d="M240 496.8 L-9840 1080"></path><path d="M249.6 496.8 L-9696 1080"></path><path d="M259.2 496.8 L-9552 1080"></path><path d="M268.8 496.8 L-9408 1080"></path><path d="M278.4 496.8 L-9264 1080"></path><path d="M288 496.8 L-9120 1080"></path><path d="M297.6 496.8 L-8976 1080"></path><path d="M307.2 496.8 L-8832 1080"></path><path d="M316.8 496.8 L-8688 1080"></path><path d="M326.4 496.8 L-8544 1080"></path><path d="M336 496.8 L-8400 1080"></path><path d="M345.6 496.8 L-8256 1080"></path><path d="M355.2 496.8 L-8112 1080"></path><path d="M364.8 496.8 L-7968 1080"></path><path d="M374.4 496.8 L-7824 1080"></path><path d="M384 496.8 L-7680 1080"></path><path d="M393.6 496.8 L-7536 1080"></path><path d="M403.2 496.8 L-7392 1080"></path><path d="M412.8 496.8 L-7248 1080"></path><path d="M422.4 496.8 L-7104 1080"></path><path d="M432 496.8 L-6960 1080"></path><path d="M441.6 496.8 L-6816 1080"></path><path d="M451.2 496.8 L-6672 1080"></path><path d="M460.8 496.8 L-6528 1080"></path><path d="M470.4 496.8 L-6384 1080"></path><path d="M480 496.8 L-6240 1080"></path><path d="M489.6 496.8 L-6096 1080"></path><path d="M499.2 496.8 L-5952 1080"></path><path d="M508.8 496.8 L-5808 1080"></path><path d="M518.4 496.8 L-5664 1080"></path><path d="M528 496.8 L-5520 1080"></path><path d="M537.6 496.8 L-5376 1080"></path><path d="M547.2 496.8 L-5232 1080"></path><path d="M556.8 496.8 L-5088 1080"></path><path d="M566.4 496.8 L-4944 1080"></path><path d="M576 496.8 L-4800 1080"></path><path d="M585.6 496.8 L-4656 1080"></path><path d="M595.2 496.8 L-4512 1080"></path><path d="M604.8 496.8 L-4368 1080"></path><path d="M614.4 496.8 L-4224 1080"></path><path d="M624 496.8 L-4080 1080"></path><path d="M633.6 496.8 L-3936 1080"></path><path d="M643.2 496.8 L-3792 1080"></path><path d="M652.8 496.8 L-3648 1080"></path><path d="M662.4 496.8 L-3504 1080"></path><path d="M672 496.8 L-3360 1080"></path><path d="M681.6 496.8 L-3216 1080"></path><path d="M691.2 496.8 L-3072 1080"></path><path d="M700.8 496.8 L-2928 1080"></path><path d="M710.4 496.8 L-2784 1080"></path><path d="M720 496.8 L-2640 1080"></path><path d="M729.6 496.8 L-2496 1080"></path><path d="M739.2 496.8 L-2352 1080"></path><path d="M748.8 496.8 L-2208 1080"></path><path d="M758.4 496.8 L-2064 1080"></path><path d="M768 496.8 L-1920 1080"></path><path d="M777.6 496.8 L-1776 1080"></path><path d="M787.2 496.8 L-1632 1080"></path><path d="M796.8 496.8 L-1488 1080"></path><path d="M806.4 496.8 L-1344 1080"></path><path d="M816 496.8 L-1200 1080"></path><path d="M825.6 496.8 L-1056 1080"></path><path d="M835.2 496.8 L-912 1080"></path><path d="M844.8 496.8 L-768 1080"></path><path d="M854.4 496.8 L-624 1080"></path><path d="M864 496.8 L-480 1080"></path><path d="M873.6 496.8 L-336 1080"></path><path d="M883.2 496.8 L-192 1080"></path><path d="M892.8 496.8 L-48 1080"></path><path d="M902.4 496.8 L96 1080"></path><path d="M912 496.8 L240 1080"></path><path d="M921.6 496.8 L384 1080"></path><path d="M931.2 496.8 L528 1080"></path><path d="M940.8 496.8 L672 1080"></path><path d="M950.4 496.8 L816 1080"></path><path d="M960 496.8 L960 1080"></path><path d="M969.6 496.8 L1104 1080"></path><path d="M979.2 496.8 L1248 1080"></path><path d="M988.8 496.8 L1392 1080"></path><path d="M998.4 496.8 L1536 1080"></path><path d="M1008 496.8 L1680 1080"></path><path d="M1017.6 496.8 L1824 1080"></path><path d="M1027.2 496.8 L1968 1080"></path><path d="M1036.8 496.8 L2112 1080"></path><path d="M1046.4 496.8 L2256 1080"></path><path d="M1056 496.8 L2400 1080"></path><path d="M1065.6 496.8 L2544 1080"></path><path d="M1075.2 496.8 L2688 1080"></path><path d="M1084.8 496.8 L2832 1080"></path><path d="M1094.4 496.8 L2976 1080"></path><path d="M1104 496.8 L3120 1080"></path><path d="M1113.6 496.8 L3264 1080"></path><path d="M1123.2 496.8 L3408 1080"></path><path d="M1132.8 496.8 L3552 1080"></path><path d="M1142.4 496.8 L3696 1080"></path><path d="M1152 496.8 L3840 1080"></path><path d="M1161.6 496.8 L3984 1080"></path><path d="M1171.2 496.8 L4128 1080"></path><path d="M1180.8 496.8 L4272 1080"></path><path d="M1190.4 496.8 L4416 1080"></path><path d="M1200 496.8 L4560 1080"></path><path d="M1209.6 496.8 L4704 1080"></path><path d="M1219.2 496.8 L4848 1080"></path><path d="M1228.8 496.8 L4992 1080"></path><path d="M1238.4 496.8 L5136 1080"></path><path d="M1248 496.8 L5280 1080"></path><path d="M1257.6 496.8 L5424 1080"></path><path d="M1267.2 496.8 L5568 1080"></path><path d="M1276.8 496.8 L5712 1080"></path><path d="M1286.4 496.8 L5856 1080"></path><path d="M1296 496.8 L6000 1080"></path><path d="M1305.6 496.8 L6144 1080"></path><path d="M1315.2 496.8 L6288 1080"></path><path d="M1324.8 496.8 L6432 1080"></path><path d="M1334.4 496.8 L6576 1080"></path><path d="M1344 496.8 L6720 1080"></path><path d="M1353.6 496.8 L6864 1080"></path><path d="M1363.2 496.8 L7008 1080"></path><path d="M1372.8 496.8 L7152 1080"></path><path d="M1382.4 496.8 L7296 1080"></path><path d="M1392 496.8 L7440 1080"></path><path d="M1401.6 496.8 L7584 1080"></path><path d="M1411.2 496.8 L7728 1080"></path><path d="M1420.8 496.8 L7872 1080"></path><path d="M1430.4 496.8 L8016 1080"></path><path d="M1440 496.8 L8160 1080"></path><path d="M1449.6 496.8 L8304 1080"></path><path d="M1459.2 496.8 L8448 1080"></path><path d="M1468.8 496.8 L8592 1080"></path><path d="M1478.4 496.8 L8736 1080"></path><path d="M1488 496.8 L8880 1080"></path><path d="M1497.6 496.8 L9024 1080"></path><path d="M1507.2 496.8 L9168 1080"></path><path d="M1516.8 496.8 L9312 1080"></path><path d="M1526.4 496.8 L9456 1080"></path><path d="M1536 496.8 L9600 1080"></path><path d="M1545.6 496.8 L9744 1080"></path><path d="M1555.2 496.8 L9888 1080"></path><path d="M1564.8 496.8 L10032 1080"></path><path d="M1574.4 496.8 L10176 1080"></path><path d="M1584 496.8 L10320 1080"></path><path d="M1593.6 496.8 L10464 1080"></path><path d="M1603.2 496.8 L10608 1080"></path><path d="M1612.8 496.8 L10752 1080"></path><path d="M1622.4 496.8 L10896 1080"></path><path d="M1632 496.8 L11040 1080"></path><path d="M1641.6 496.8 L11184 1080"></path><path d="M1651.2 496.8 L11328 1080"></path><path d="M1660.8 496.8 L11472 1080"></path><path d="M1670.4 496.8 L11616 1080"></path><path d="M1680 496.8 L11760 1080"></path><path d="M1689.6 496.8 L11904 1080"></path><path d="M1699.2 496.8 L12048 1080"></path><path d="M1708.8 496.8 L12192 1080"></path><path d="M1718.4 496.8 L12336 1080"></path><path d="M1728 496.8 L12480 1080"></path><path d="M1737.6 496.8 L12624 1080"></path><path d="M1747.2 496.8 L12768 1080"></path><path d="M1756.8 496.8 L12912 1080"></path><path d="M1766.4 496.8 L13056 1080"></path><path d="M1776 496.8 L13200 1080"></path><path d="M1785.6 496.8 L13344 1080"></path><path d="M1795.2 496.8 L13488 1080"></path><path d="M1804.8 496.8 L13632 1080"></path><path d="M1814.4 496.8 L13776 1080"></path><path d="M1824 496.8 L13920 1080"></path><path d="M1833.6 496.8 L14064 1080"></path><path d="M1843.2 496.8 L14208 1080"></path><path d="M1852.8 496.8 L14352 1080"></path><path d="M1862.4 496.8 L14496 1080"></path><path d="M1872 496.8 L14640 1080"></path><path d="M1881.6 496.8 L14784 1080"></path><path d="M1891.2 496.8 L14928 1080"></path><path d="M1900.8 496.8 L15072 1080"></path><path d="M1910.4 496.8 L15216 1080"></path><path d="M1920 496.8 L15360 1080"></path><g>
<path d="M0 496.8 L1920 496.8"></path>
<animateTransform attributeName="transform" type="translate" repeatCount="indefinite" calcMode="linear" keyTimes="0;1" values="0 0;0 1.8662400000000001" begin="0s" dur="0.32894736842105265s"></animateTransform>

</g><g>
<path d="M0 498.66624 L1920 498.66624"></path>
<animateTransform attributeName="transform" type="translate" repeatCount="indefinite" calcMode="linear" keyTimes="0;1" values="0 0;0 3.73248" begin="0s" dur="0.32894736842105265s"></animateTransform>

</g><g>
<path d="M0 502.39872 L1920 502.39872"></path>
<animateTransform attributeName="transform" type="translate" repeatCount="indefinite" calcMode="linear" keyTimes="0;1" values="0 0;0 5.59872" begin="0s" dur="0.32894736842105265s"></animateTransform>

</g><g>
<path d="M0 507.99744000000004 L1920 507.99744000000004"></path>
<animateTransform attributeName="transform" type="translate" repeatCount="indefinite" calcMode="linear" keyTimes="0;1" values="0 0;0 7.4649600000000005" begin="0s" dur="0.32894736842105265s"></animateTransform>

</g><g>
<path d="M0 515.4624 L1920 515.4624"></path>
<animateTransform attributeName="transform" type="translate" repeatCount="indefinite" calcMode="linear" keyTimes="0;1" values="0 0;0 9.3312" begin="0s" dur="0.32894736842105265s"></animateTransform>

</g><g>
<path d="M0 524.7936 L1920 524.7936"></path>
<animateTransform attributeName="transform" type="translate" repeatCount="indefinite" calcMode="linear" keyTimes="0;1" values="0 0;0 11.19744" begin="0s" dur="0.32894736842105265s"></animateTransform>

</g><g>
<path d="M0 535.99104 L1920 535.99104"></path>
<animateTransform attributeName="transform" type="translate" repeatCount="indefinite" calcMode="linear" keyTimes="0;1" values="0 0;0 13.06368" begin="0s" dur="0.32894736842105265s"></animateTransform>

</g><g>
<path d="M0 549.05472 L1920 549.05472"></path>
<animateTransform attributeName="transform" type="translate" repeatCount="indefinite" calcMode="linear" keyTimes="0;1" values="0 0;0 14.929920000000001" begin="0s" dur="0.32894736842105265s"></animateTransform>

</g><g>
<path d="M0 563.98464 L1920 563.98464"></path>
<animateTransform attributeName="transform" type="translate" repeatCount="indefinite" calcMode="linear" keyTimes="0;1" values="0 0;0 16.79616" begin="0s" dur="0.32894736842105265s"></animateTransform>

</g><g>
<path d="M0 580.7808 L1920 580.7808"></path>
<animateTransform attributeName="transform" type="translate" repeatCount="indefinite" calcMode="linear" keyTimes="0;1" values="0 0;0 18.6624" begin="0s" dur="0.32894736842105265s"></animateTransform>

</g><g>
<path d="M0 599.4432 L1920 599.4432"></path>
<animateTransform attributeName="transform" type="translate" repeatCount="indefinite" calcMode="linear" keyTimes="0;1" values="0 0;0 20.528640000000003" begin="0s" dur="0.32894736842105265s"></animateTransform>

</g><g>
<path d="M0 619.97184 L1920 619.97184"></path>
<animateTransform attributeName="transform" type="translate" repeatCount="indefinite" calcMode="linear" keyTimes="0;1" values="0 0;0 22.394880000000004" begin="0s" dur="0.32894736842105265s"></animateTransform>

</g><g>
<path d="M0 642.3667200000001 L1920 642.3667200000001"></path>
<animateTransform attributeName="transform" type="translate" repeatCount="indefinite" calcMode="linear" keyTimes="0;1" values="0 0;0 24.261120000000005" begin="0s" dur="0.32894736842105265s"></animateTransform>

</g><g>
<path d="M0 666.6278400000001 L1920 666.6278400000001"></path>
<animateTransform attributeName="transform" type="translate" repeatCount="indefinite" calcMode="linear" keyTimes="0;1" values="0 0;0 26.127360000000007" begin="0s" dur="0.32894736842105265s"></animateTransform>

</g><g>
<path d="M0 692.7552000000001 L1920 692.7552000000001"></path>
<animateTransform attributeName="transform" type="translate" repeatCount="indefinite" calcMode="linear" keyTimes="0;1" values="0 0;0 27.993600000000008" begin="0s" dur="0.32894736842105265s"></animateTransform>

</g><g>
<path d="M0 720.7488000000001 L1920 720.7488000000001"></path>
<animateTransform attributeName="transform" type="translate" repeatCount="indefinite" calcMode="linear" keyTimes="0;1" values="0 0;0 29.85984000000001" begin="0s" dur="0.32894736842105265s"></animateTransform>

</g><g>
<path d="M0 750.60864 L1920 750.60864"></path>
<animateTransform attributeName="transform" type="translate" repeatCount="indefinite" calcMode="linear" keyTimes="0;1" values="0 0;0 31.726080000000007" begin="0s" dur="0.32894736842105265s"></animateTransform>

</g><g>
<path d="M0 782.3347200000001 L1920 782.3347200000001"></path>
<animateTransform attributeName="transform" type="translate" repeatCount="indefinite" calcMode="linear" keyTimes="0;1" values="0 0;0 33.59232000000001" begin="0s" dur="0.32894736842105265s"></animateTransform>

</g><g>
<path d="M0 815.92704 L1920 815.92704"></path>
<animateTransform attributeName="transform" type="translate" repeatCount="indefinite" calcMode="linear" keyTimes="0;1" values="0 0;0 35.458560000000006" begin="0s" dur="0.32894736842105265s"></animateTransform>

</g><g>
<path d="M0 851.3856000000001 L1920 851.3856000000001"></path>
<animateTransform attributeName="transform" type="translate" repeatCount="indefinite" calcMode="linear" keyTimes="0;1" values="0 0;0 37.3248" begin="0s" dur="0.32894736842105265s"></animateTransform>

</g><g>
<path d="M0 888.7104 L1920 888.7104"></path>
<animateTransform attributeName="transform" type="translate" repeatCount="indefinite" calcMode="linear" keyTimes="0;1" values="0 0;0 39.19104" begin="0s" dur="0.32894736842105265s"></animateTransform>

</g><g>
<path d="M0 927.9014400000001 L1920 927.9014400000001"></path>
<animateTransform attributeName="transform" type="translate" repeatCount="indefinite" calcMode="linear" keyTimes="0;1" values="0 0;0 41.05728" begin="0s" dur="0.32894736842105265s"></animateTransform>

</g>
<g>
<path d="M0 968.9587200000001 L1920 968.9587200000001"></path>
<animateTransform attributeName="transform" type="translate" repeatCount="indefinite" calcMode="linear" keyTimes="0;1" values="0 0;0 42.923519999999996" begin="0s" dur="0.32894736842105265s"></animateTransform>

</g><g>
<path d="M0 1011.8822400000001 L1920 1011.8822400000001"></path>
<animateTransform attributeName="transform" type="translate" repeatCount="indefinite" calcMode="linear" keyTimes="0;1" values="0 0;0 44.789759999999994" begin="0s" dur="0.32894736842105265s"></animateTransform>

</g><g>
<path d="M0 1056.672 L1920 1056.672"></path>
<animateTransform attributeName="transform" type="translate" repeatCount="indefinite" calcMode="linear" keyTimes="0;1" values="0 0;0 46.65599999999999" begin="0s" dur="0.32894736842105265s"></animateTransform>

</g><rect x="0" y="0" width="1920" height="1080" fill="url(#fg-lg-0.15616325702630318)"></rect></g>
</svg>