<svg xmlns="http://www.w3.org/2000/svg" xmlns:xlink="http://www.w3.org/1999/xlink" style="margin:auto;background:#ffffff;display:block;z-index:1;position:relative" width="1920" height="1080" preserveAspectRatio="xMidYMid" viewBox="0 0 1920 1080">
<g transform="translate(960,540) scale(1,1) translate(-960,-540)"><defs>
<linearGradient id="lg-0.7024512912034065" x1="0" x2="0" y1="0" y2="1">
  <stop stop-color="rgba(255, 0, 255, 0)" offset="0"></stop>
  <stop stop-color="rgba(0, 0, 0, 0)" offset="0.5"></stop>
  <stop stop-color="rgba(0, 0, 0, 0)" offset="1"></stop>
</linearGradient>
<linearGradient id="fg-lg-0.7024512912034065" x1="0" x2="0" y1="0" y2="1">
  <stop stop-color="rgba(255, 0, 255, 0)" stop-opacity="1" offset="0"></stop>
  <stop stop-color="rgba(0, 0, 0, 0)" stop-opacity="0.66" offset="0.5"></stop>
  <stop stop-color="rgba(0, 0, 0, 0)" stop-opacity="0" offset="1"></stop>
</linearGradient>
<style type="text/css">
  path { fill: none; stroke: #00edff; stroke-width: 3px }
</style>
</defs>
<rect x="0" y="0" width="1920" height="1080" fill="url(#lg-0.7024512912034065)"></rect><path d="M0 0 L-27840 1080"></path><path d="M9.6 0 L-27552 1080"></path><path d="M19.2 0 L-27264 1080"></path><path d="M28.8 0 L-26976 1080"></path><path d="M38.4 0 L-26688 1080"></path><path d="M48 0 L-26400 1080"></path><path d="M57.6 0 L-26112 1080"></path><path d="M67.2 0 L-25824 1080"></path><path d="M76.8 0 L-25536 1080"></path><path d="M86.4 0 L-25248 1080"></path><path d="M96 0 L-24960 1080"></path><path d="M105.6 0 L-24672 1080"></path><path d="M115.2 0 L-24384 1080"></path><path d="M124.8 0 L-24096 1080"></path><path d="M134.4 0 L-23808 1080"></path><path d="M144 0 L-23520 1080"></path><path d="M153.6 0 L-23232 1080"></path><path d="M163.2 0 L-22944 1080"></path><path d="M172.8 0 L-22656 1080"></path><path d="M182.4 0 L-22368 1080"></path><path d="M192 0 L-22080 1080"></path><path d="M201.6 0 L-21792 1080"></path><path d="M211.2 0 L-21504 1080"></path><path d="M220.8 0 L-21216 1080"></path><path d="M230.4 0 L-20928 1080"></path><path d="M240 0 L-20640 1080"></path><path d="M249.6 0 L-20352 1080"></path><path d="M259.2 0 L-20064 1080"></path><path d="M268.8 0 L-19776 1080"></path><path d="M278.4 0 L-19488 1080"></path><path d="M288 0 L-19200 1080"></path><path d="M297.6 0 L-18912 1080"></path><path d="M307.2 0 L-18624 1080"></path><path d="M316.8 0 L-18336 1080"></path><path d="M326.4 0 L-18048 1080"></path><path d="M336 0 L-17760 1080"></path><path d="M345.6 0 L-17472 1080"></path><path d="M355.2 0 L-17184 1080"></path><path d="M364.8 0 L-16896 1080"></path><path d="M374.4 0 L-16608 1080"></path><path d="M384 0 L-16320 1080"></path><path d="M393.6 0 L-16032 1080"></path><path d="M403.2 0 L-15744 1080"></path><path d="M412.8 0 L-15456 1080"></path><path d="M422.4 0 L-15168 1080"></path><path d="M432 0 L-14880 1080"></path><path d="M441.6 0 L-14592 1080"></path><path d="M451.2 0 L-14304 1080"></path><path d="M460.8 0 L-14016 1080"></path><path d="M470.4 0 L-13728 1080"></path><path d="M480 0 L-13440 1080"></path><path d="M489.6 0 L-13152 1080"></path><path d="M499.2 0 L-12864 1080"></path><path d="M508.8 0 L-12576 1080"></path><path d="M518.4 0 L-12288 1080"></path><path d="M528 0 L-12000 1080"></path><path d="M537.6 0 L-11712 1080"></path><path d="M547.2 0 L-11424 1080"></path><path d="M556.8 0 L-11136 1080"></path><path d="M566.4 0 L-10848 1080"></path><path d="M576 0 L-10560 1080"></path><path d="M585.6 0 L-10272 1080"></path><path d="M595.2 0 L-9984 1080"></path><path d="M604.8 0 L-9696 1080"></path><path d="M614.4 0 L-9408 1080"></path><path d="M624 0 L-9120 1080"></path><path d="M633.6 0 L-8832 1080"></path><path d="M643.2 0 L-8544 1080"></path><path d="M652.8 0 L-8256 1080"></path><path d="M662.4 0 L-7968 1080"></path><path d="M672 0 L-7680 1080"></path><path d="M681.6 0 L-7392 1080"></path><path d="M691.2 0 L-7104 1080"></path><path d="M700.8 0 L-6816 1080"></path><path d="M710.4 0 L-6528 1080"></path><path d="M720 0 L-6240 1080"></path><path d="M729.6 0 L-5952 1080"></path><path d="M739.2 0 L-5664 1080"></path><path d="M748.8 0 L-5376 1080"></path><path d="M758.4 0 L-5088 1080"></path><path d="M768 0 L-4800 1080"></path><path d="M777.6 0 L-4512 1080"></path><path d="M787.2 0 L-4224 1080"></path><path d="M796.8 0 L-3936 1080"></path><path d="M806.4 0 L-3648 1080"></path><path d="M816 0 L-3360 1080"></path><path d="M825.6 0 L-3072 1080"></path><path d="M835.2 0 L-2784 1080"></path><path d="M844.8 0 L-2496 1080"></path><path d="M854.4 0 L-2208 1080"></path><path d="M864 0 L-1920 1080"></path><path d="M873.6 0 L-1632 1080"></path><path d="M883.2 0 L-1344 1080"></path><path d="M892.8 0 L-1056 1080"></path><path d="M902.4 0 L-768 1080"></path><path d="M912 0 L-480 1080"></path><path d="M921.6 0 L-192 1080"></path><path d="M931.2 0 L96 1080"></path><path d="M940.8 0 L384 1080"></path><path d="M950.4 0 L672 1080"></path><path d="M960 0 L960 1080"></path><path d="M969.6 0 L1248 1080"></path><path d="M979.2 0 L1536 1080"></path><path d="M988.8 0 L1824 1080"></path><path d="M998.4 0 L2112 1080"></path><path d="M1008 0 L2400 1080"></path><path d="M1017.6 0 L2688 1080"></path><path d="M1027.2 0 L2976 1080"></path><path d="M1036.8 0 L3264 1080"></path><path d="M1046.4 0 L3552 1080"></path><path d="M1056 0 L3840 1080"></path><path d="M1065.6 0 L4128 1080"></path><path d="M1075.2 0 L4416 1080"></path><path d="M1084.8 0 L4704 1080"></path><path d="M1094.4 0 L4992 1080"></path><path d="M1104 0 L5280 1080"></path><path d="M1113.6 0 L5568 1080"></path><path d="M1123.2 0 L5856 1080"></path><path d="M1132.8 0 L6144 1080"></path><path d="M1142.4 0 L6432 1080"></path><path d="M1152 0 L6720 1080"></path><path d="M1161.6 0 L7008 1080"></path><path d="M1171.2 0 L7296 1080"></path><path d="M1180.8 0 L7584 1080"></path><path d="M1190.4 0 L7872 1080"></path><path d="M1200 0 L8160 1080"></path><path d="M1209.6 0 L8448 1080"></path><path d="M1219.2 0 L8736 1080"></path><path d="M1228.8 0 L9024 1080"></path><path d="M1238.4 0 L9312 1080"></path><path d="M1248 0 L9600 1080"></path><path d="M1257.6 0 L9888 1080"></path><path d="M1267.2 0 L10176 1080"></path><path d="M1276.8 0 L10464 1080"></path><path d="M1286.4 0 L10752 1080"></path><path d="M1296 0 L11040 1080"></path><path d="M1305.6 0 L11328 1080"></path><path d="M1315.2 0 L11616 1080"></path><path d="M1324.8 0 L11904 1080"></path><path d="M1334.4 0 L12192 1080"></path><path d="M1344 0 L12480 1080"></path><path d="M1353.6 0 L12768 1080"></path><path d="M1363.2 0 L13056 1080"></path><path d="M1372.8 0 L13344 1080"></path><path d="M1382.4 0 L13632 1080"></path><path d="M1392 0 L13920 1080"></path><path d="M1401.6 0 L14208 1080"></path><path d="M1411.2 0 L14496 1080"></path><path d="M1420.8 0 L14784 1080"></path><path d="M1430.4 0 L15072 1080"></path><path d="M1440 0 L15360 1080"></path><path d="M1449.6 0 L15648 1080"></path><path d="M1459.2 0 L15936 1080"></path><path d="M1468.8 0 L16224 1080"></path><path d="M1478.4 0 L16512 1080"></path><path d="M1488 0 L16800 1080"></path><path d="M1497.6 0 L17088 1080"></path><path d="M1507.2 0 L17376 1080"></path><path d="M1516.8 0 L17664 1080"></path><path d="M1526.4 0 L17952 1080"></path><path d="M1536 0 L18240 1080"></path><path d="M1545.6 0 L18528 1080"></path><path d="M1555.2 0 L18816 1080"></path><path d="M1564.8 0 L19104 1080"></path><path d="M1574.4 0 L19392 1080"></path><path d="M1584 0 L19680 1080"></path><path d="M1593.6 0 L19968 1080"></path><path d="M1603.2 0 L20256 1080"></path><path d="M1612.8 0 L20544 1080"></path><path d="M1622.4 0 L20832 1080"></path><path d="M1632 0 L21120 1080"></path><path d="M1641.6 0 L21408 1080"></path><path d="M1651.2 0 L21696 1080"></path><path d="M1660.8 0 L21984 1080"></path><path d="M1670.4 0 L22272 1080"></path><path d="M1680 0 L22560 1080"></path><path d="M1689.6 0 L22848 1080"></path><path d="M1699.2 0 L23136 1080"></path><path d="M1708.8 0 L23424 1080"></path><path d="M1718.4 0 L23712 1080"></path><path d="M1728 0 L24000 1080"></path><path d="M1737.6 0 L24288 1080"></path><path d="M1747.2 0 L24576 1080"></path><path d="M1756.8 0 L24864 1080"></path><path d="M1766.4 0 L25152 1080"></path><path d="M1776 0 L25440 1080"></path><path d="M1785.6 0 L25728 1080"></path><path d="M1795.2 0 L26016 1080"></path><path d="M1804.8 0 L26304 1080"></path><path d="M1814.4 0 L26592 1080"></path><path d="M1824 0 L26880 1080"></path><path d="M1833.6 0 L27168 1080"></path><path d="M1843.2 0 L27456 1080"></path><path d="M1852.8 0 L27744 1080"></path><path d="M1862.4 0 L28032 1080"></path><path d="M1872 0 L28320 1080"></path><path d="M1881.6 0 L28608 1080"></path><path d="M1891.2 0 L28896 1080"></path><path d="M1900.8 0 L29184 1080"></path><path d="M1910.4 0 L29472 1080"></path><path d="M1920 0 L29760 1080"></path><g>
<path d="M0 0 L1920 0"></path>
<animateTransform attributeName="transform" type="translate" repeatCount="indefinite" calcMode="linear" keyTimes="0;1" values="0 0;0 3.456" begin="0s" dur="0.3952569169960475s"></animateTransform>

</g><g>
<path d="M0 3.456 L1920 3.456"></path>
<animateTransform attributeName="transform" type="translate" repeatCount="indefinite" calcMode="linear" keyTimes="0;1" values="0 0;0 6.912000000000001" begin="0s" dur="0.3952569169960475s"></animateTransform>

</g><g>
<path d="M0 10.368 L1920 10.368"></path>
<animateTransform attributeName="transform" type="translate" repeatCount="indefinite" calcMode="linear" keyTimes="0;1" values="0 0;0 10.368" begin="0s" dur="0.3952569169960475s"></animateTransform>

</g><g>
<path d="M0 20.736 L1920 20.736"></path>
<animateTransform attributeName="transform" type="translate" repeatCount="indefinite" calcMode="linear" keyTimes="0;1" values="0 0;0 13.824000000000002" begin="0s" dur="0.3952569169960475s"></animateTransform>

</g><g>
<path d="M0 34.56 L1920 34.56"></path>
<animateTransform attributeName="transform" type="translate" repeatCount="indefinite" calcMode="linear" keyTimes="0;1" values="0 0;0 17.28" begin="0s" dur="0.3952569169960475s"></animateTransform>

</g><g>
<path d="M0 51.84 L1920 51.84"></path>
<animateTransform attributeName="transform" type="translate" repeatCount="indefinite" calcMode="linear" keyTimes="0;1" values="0 0;0 20.736" begin="0s" dur="0.3952569169960475s"></animateTransform>

</g><g>
<path d="M0 72.57600000000001 L1920 72.57600000000001"></path>
<animateTransform attributeName="transform" type="translate" repeatCount="indefinite" calcMode="linear" keyTimes="0;1" values="0 0;0 24.192" begin="0s" dur="0.3952569169960475s"></animateTransform>

</g><g>
<path d="M0 96.768 L1920 96.768"></path>
<animateTransform attributeName="transform" type="translate" repeatCount="indefinite" calcMode="linear" keyTimes="0;1" values="0 0;0 27.648" begin="0s" dur="0.3952569169960475s"></animateTransform>

</g><g>
<path d="M0 124.416 L1920 124.416"></path>
<animateTransform attributeName="transform" type="translate" repeatCount="indefinite" calcMode="linear" keyTimes="0;1" values="0 0;0 31.104000000000003" begin="0s" dur="0.3952569169960475s"></animateTransform>

</g><g>
<path d="M0 155.51999999999998 L1920 155.51999999999998"></path>
<animateTransform attributeName="transform" type="translate" repeatCount="indefinite" calcMode="linear" keyTimes="0;1" values="0 0;0 34.56" begin="0s" dur="0.3952569169960475s"></animateTransform>

</g><g>
<path d="M0 190.07999999999998 L1920 190.07999999999998"></path>
<animateTransform attributeName="transform" type="translate" repeatCount="indefinite" calcMode="linear" keyTimes="0;1" values="0 0;0 38.016000000000005" begin="0s" dur="0.3952569169960475s"></animateTransform>

</g><g>
<path d="M0 228.096 L1920 228.096"></path>
<animateTransform attributeName="transform" type="translate" repeatCount="indefinite" calcMode="linear" keyTimes="0;1" values="0 0;0 41.47200000000001" begin="0s" dur="0.3952569169960475s"></animateTransform>

</g><g>
<path d="M0 269.568 L1920 269.568"></path>
<animateTransform attributeName="transform" type="translate" repeatCount="indefinite" calcMode="linear" keyTimes="0;1" values="0 0;0 44.92800000000001" begin="0s" dur="0.3952569169960475s"></animateTransform>

</g><g>
<path d="M0 314.496 L1920 314.496"></path>
<animateTransform attributeName="transform" type="translate" repeatCount="indefinite" calcMode="linear" keyTimes="0;1" values="0 0;0 48.384000000000015" begin="0s" dur="0.3952569169960475s"></animateTransform>

</g><g>
<path d="M0 362.88 L1920 362.88"></path>
<animateTransform attributeName="transform" type="translate" repeatCount="indefinite" calcMode="linear" keyTimes="0;1" values="0 0;0 51.84000000000002" begin="0s" dur="0.3952569169960475s"></animateTransform>

</g><g>
<path d="M0 414.72 L1920 414.72"></path>
<animateTransform attributeName="transform" type="translate" repeatCount="indefinite" calcMode="linear" keyTimes="0;1" values="0 0;0 55.29600000000002" begin="0s" dur="0.3952569169960475s"></animateTransform>

</g><g>
<path d="M0 470.0160000000001 L1920 470.0160000000001"></path>
<animateTransform attributeName="transform" type="translate" repeatCount="indefinite" calcMode="linear" keyTimes="0;1" values="0 0;0 58.752000000000024" begin="0s" dur="0.3952569169960475s"></animateTransform>

</g><g>
<path d="M0 528.7680000000001 L1920 528.7680000000001"></path>
<animateTransform attributeName="transform" type="translate" repeatCount="indefinite" calcMode="linear" keyTimes="0;1" values="0 0;0 62.20800000000003" begin="0s" dur="0.3952569169960475s"></animateTransform>

</g><g>
<path d="M0 590.9760000000001 L1920 590.9760000000001"></path>
<animateTransform attributeName="transform" type="translate" repeatCount="indefinite" calcMode="linear" keyTimes="0;1" values="0 0;0 65.66400000000003" begin="0s" dur="0.3952569169960475s"></animateTransform>

</g><g>
<path d="M0 656.6400000000001 L1920 656.6400000000001"></path>
<animateTransform attributeName="transform" type="translate" repeatCount="indefinite" calcMode="linear" keyTimes="0;1" values="0 0;0 69.12000000000003" begin="0s" dur="0.3952569169960475s"></animateTransform>

</g><g>
<path d="M0 725.7600000000001 L1920 725.7600000000001"></path>
<animateTransform attributeName="transform" type="translate" repeatCount="indefinite" calcMode="linear" keyTimes="0;1" values="0 0;0 72.57600000000004" begin="0s" dur="0.3952569169960475s"></animateTransform>

</g><g>
<path d="M0 798.3360000000001 L1920 798.3360000000001"></path>
<animateTransform attributeName="transform" type="translate" repeatCount="indefinite" calcMode="linear" keyTimes="0;1" values="0 0;0 76.03200000000004" begin="0s" dur="0.3952569169960475s"></animateTransform>

</g><g>
<path d="M0 874.3680000000002 L1920 874.3680000000002"></path>
<animateTransform attributeName="transform" type="translate" repeatCount="indefinite" calcMode="linear" keyTimes="0;1" values="0 0;0 79.48800000000004" begin="0s" dur="0.3952569169960475s"></animateTransform>

</g><g>
<path d="M0 953.8560000000002 L1920 953.8560000000002"></path>
<animateTransform attributeName="transform" type="translate" repeatCount="indefinite" calcMode="linear" keyTimes="0;1" values="0 0;0 82.94400000000005" begin="0s" dur="0.3952569169960475s"></animateTransform>

</g><g>
<path d="M0 1036.8000000000002 L1920 1036.8000000000002"></path>
<animateTransform attributeName="transform" type="translate" repeatCount="indefinite" calcMode="linear" keyTimes="0;1" values="0 0;0 86.40000000000005" begin="0s" dur="0.3952569169960475s"></animateTransform>

</g><rect x="0" y="0" width="1920" height="1080" fill="url(#fg-lg-0.7024512912034065)"></rect></g>
</svg>